<svg width="12" height="13" viewBox="0 0 12 13" fill="none" xmlns="http://www.w3.org/2000/svg">
<path d="M9 0C8.94686 0 3.85706 0 3.85706 0C2.9502 0 2.14275 0.788442 2.14275 1.62502L1.64725 1.63599C0.74098 1.63599 0 2.41347 0 3.25005V11.375C0 12.2114 0.807451 13 1.71431 13H8.14294C9.0498 13 9.85725 12.2116 9.85725 11.375H10.2859C11.1927 11.375 12.0002 10.5865 12.0002 9.74995V3.25971L9 0ZM8.14294 12.1876H1.71431C1.26431 12.1876 0.857255 11.7891 0.857255 11.375V3.25005C0.857255 2.83612 1.22373 2.45101 1.67373 2.45101L2.14294 2.43763V9.75014C2.14294 10.5865 2.95039 11.3752 3.85725 11.3752H9C9 11.7889 8.59275 12.1876 8.14294 12.1876ZM11.1429 9.74995C11.1429 10.1639 10.7357 10.5624 10.2857 10.5624H3.85706C3.40706 10.5624 3 10.1639 3 9.74995V1.62502C3 1.2111 3.40706 0.812605 3.85706 0.812605H8.14275C8.13588 1.74825 8.14275 2.44785 8.14275 2.44785C8.14275 3.29205 8.94412 4.06265 9.85706 4.06265C9.85706 4.06265 10.3122 4.06265 11.1427 4.06265V9.74995H11.1429ZM9.85706 3.25005C9.40059 3.25005 9 2.46402 9 2.04229C9 2.04229 9 1.61499 9 0.825243V0.8245L11.1429 3.25023H9.85706V3.25005ZM9 5.69474H5.14294C4.90627 5.69474 4.71431 5.87633 4.71431 6.10048C4.71431 6.32464 4.90627 6.50623 5.14294 6.50623H9C9.23667 6.50623 9.42863 6.32464 9.42863 6.10048C9.42863 5.87633 9.23667 5.69474 9 5.69474ZM9 7.72402H5.14294C4.90627 7.72402 4.71431 7.90561 4.71431 8.12976C4.71431 8.3541 4.90627 8.53569 5.14294 8.53569H9C9.23667 8.53569 9.42863 8.3541 9.42863 8.12976C9.42863 7.90561 9.23667 7.72402 9 7.72402Z" fill="#00949D"/>
</svg>
