<svg width="20" height="19" viewBox="0 0 20 19" fill="none" xmlns="http://www.w3.org/2000/svg">
<path fill-rule="evenodd" clip-rule="evenodd" d="M8.35205 11.6691C7.82612 11.1699 7.89354 10.4279 8.52736 9.79391C10.8603 7.4601 13.1933 5.1128 15.5263 2.7655C15.6397 2.66074 15.7419 2.55034 15.8729 2.40869C15.9444 2.33145 16.0244 2.24492 16.1196 2.14495C15.8173 2.14495 15.531 2.14655 15.2546 2.1481C14.7298 2.15104 14.2409 2.15378 13.7462 2.14495C12.9506 2.13146 12.4786 1.72675 12.4651 1.07922C12.4516 0.431687 12.9371 0 13.7192 0C15.4049 0 17.0771 0 18.7628 0.0134902C19.5854 0.0134902 19.9899 0.418197 19.9899 1.25459C20.0034 2.92738 20.0034 4.61366 19.9899 6.28645C19.9899 7.05539 19.5314 7.55453 18.8841 7.52755C18.2503 7.50057 17.8592 7.0419 17.8458 6.28645C17.837 5.78742 17.8396 5.29407 17.8425 4.74371C17.8441 4.44604 17.8458 4.1317 17.8458 3.79076C17.7165 3.92188 17.5899 4.0503 17.4657 4.17639C16.6696 4.98424 15.9681 5.69605 15.2566 6.40786C14.6952 6.96947 14.1337 7.53257 13.5718 8.09617C12.4466 9.22484 11.3193 10.3555 10.1861 11.4802C9.56573 12.1007 8.86449 12.1682 8.35205 11.6691ZM17.0764 11.3543C17.6413 11.3436 17.9915 11.7387 17.9915 12.4008C18.0028 13.8744 18.0028 15.3373 17.9915 16.8109C17.9802 18.1991 17.1103 19 15.6415 19H8.95308H2.26463C0.908866 19 0.0163195 18.1778 0.00502142 16.8857C-0.00251269 15.4473 0 14.0041 0.00251281 12.5625C0.00376746 11.8423 0.00502142 11.1225 0.00502142 10.4039V4.29585C0.0163195 2.77952 0.82978 2 2.42281 2H6.97592C7.6877 2 8.09443 2.30967 8.10573 2.85427C8.11702 3.37751 7.699 3.70854 6.99852 3.70854H2.61487C1.97088 3.70854 1.81271 3.85804 1.81271 4.45603V16.5653C1.81271 17.1526 1.98218 17.3021 2.62617 17.3021H15.3817C16.037 17.3021 16.1951 17.1526 16.1951 16.5119V12.4221C16.1951 11.7387 16.5115 11.3649 17.0764 11.3543Z" fill="#00949D"/>
</svg>
