<svg width="54" height="54" viewBox="0 0 54 54" fill="none" xmlns="http://www.w3.org/2000/svg">
<path d="M27 0C12.0366 0 0 12.0366 0 27C0 41.9634 12.0366 54 27 54C41.9634 54 54 41.9634 54 27C54 12.0366 41.9634 0 27 0ZM21.9375 45.6759C21.9375 45.9 21.9375 46.0134 21.8241 46.1268C21.7107 46.5777 21.2625 46.8018 20.8116 46.5777C14.5125 44.5527 9.6741 39.7143 7.6491 33.4152C4.2741 22.7286 10.125 11.3643 20.8116 7.9893C20.925 7.8759 21.1491 7.8759 21.2625 7.8759C21.7134 7.9893 21.9375 8.3268 21.9375 8.775V10.3491C21.9375 10.9107 21.7134 11.2482 21.2625 11.475C16.6509 13.1625 12.9384 16.7616 11.2509 21.4866C7.9893 30.1482 12.4875 39.9357 21.2625 43.0866C21.6 43.3107 21.9375 43.7616 21.9375 44.0991V45.6759ZM28.8009 39.9384C28.6875 40.5 28.35 40.8375 27.9018 40.8375H26.2143C25.6527 40.7241 25.3152 40.3866 25.3152 39.9384V37.2384C21.6027 36.6768 19.8018 34.6518 19.3536 31.8384V31.725C19.3536 31.2741 19.6911 30.9366 20.142 30.9366H22.0536C22.3911 30.9366 22.7286 31.1607 22.842 31.6116C23.1795 33.2991 24.192 34.5357 27.1161 34.5357C29.2545 34.5357 30.8286 33.2991 30.8286 31.4982C30.8286 29.6973 29.8161 29.0223 26.6652 28.4607C21.9402 27.8991 19.6911 26.4357 19.6911 22.7232C19.6911 19.9098 21.8295 17.6607 25.2045 17.2098V14.6232C25.3179 14.0616 25.6554 13.7241 26.1036 13.7241H27.7911C28.3527 13.8375 28.6902 14.175 28.6902 14.6232V17.3232C31.2768 17.5473 33.3018 19.4616 33.7527 21.9348V22.0482C33.7527 22.4991 33.4152 22.8366 32.9643 22.8366H31.1634C30.8259 22.8366 30.4884 22.6125 30.375 22.275C29.8134 20.5875 28.6875 19.9125 26.6625 19.9125C24.4134 19.9125 23.2875 20.925 23.2875 22.4991C23.2875 24.0732 23.9625 24.975 27.3375 25.4232C32.0625 25.9848 34.425 27.3348 34.425 31.2741C34.425 34.3116 32.1759 36.6741 28.8009 37.2357V39.9384ZM33.1884 46.6884C33.075 46.8018 32.8509 46.8018 32.7375 46.8018C32.2866 46.6884 32.0625 46.3509 32.0625 45.9027V44.3286C32.0625 43.767 32.2866 43.4295 32.7375 43.2027C37.3491 41.5152 41.0616 37.9161 42.7491 33.1911C46.0107 24.5295 41.5125 14.742 32.7375 11.5911C32.4 11.367 32.0625 10.9161 32.0625 10.4652V8.8911C32.0625 8.667 32.0625 8.5536 32.1759 8.4402C32.2893 7.9893 32.7375 7.7652 33.1884 7.9893C39.3768 10.0143 44.3259 14.8527 46.3509 21.2652C49.7259 31.9491 43.875 43.3134 33.1884 46.6884Z" fill="#2775CA"/>
</svg>
