<svg width="70" height="65" viewBox="0 0 70 65" fill="none" xmlns="http://www.w3.org/2000/svg">
<g clip-path="url(#clip0_7874_1756)">
<path d="M66.3007 0.248291L39.1646 20.344L44.2074 8.49745L66.3007 0.248291Z" fill="#E17726" stroke="#E17726" stroke-width="0.25" stroke-linecap="round" stroke-linejoin="round"/>
<path d="M3.69922 0.248291L30.608 20.5301L25.7925 8.49745L3.69922 0.248291Z" fill="#E27625" stroke="#E27625" stroke-width="0.25" stroke-linecap="round" stroke-linejoin="round"/>
<path d="M56.5254 46.8489L49.3125 57.8891L64.7716 62.1481L69.1944 47.097L56.5254 46.8489Z" fill="#E27625" stroke="#E27625" stroke-width="0.25" stroke-linecap="round" stroke-linejoin="round"/>
<path d="M0.827148 47.097L5.22927 62.1481L20.6677 57.8891L13.4755 46.8489L0.827148 47.097Z" fill="#E27625" stroke="#E27625" stroke-width="0.25" stroke-linecap="round" stroke-linejoin="round"/>
<path d="M19.8413 28.2004L15.5425 34.6922L30.8569 35.3951L30.3402 18.9175L19.8413 28.2004Z" fill="#E27625" stroke="#E27625" stroke-width="0.25" stroke-linecap="round" stroke-linejoin="round"/>
<path d="M50.1802 28.2003L39.5159 18.7107L39.1646 35.3744L54.4583 34.6715L50.1802 28.2003Z" fill="#E27625" stroke="#E27625" stroke-width="0.25" stroke-linecap="round" stroke-linejoin="round"/>
<path d="M20.667 57.889L29.9259 53.4232L21.9484 47.2002L20.667 57.889Z" fill="#E27625" stroke="#E27625" stroke-width="0.25" stroke-linecap="round" stroke-linejoin="round"/>
<path d="M40.0747 53.4026L49.313 57.889L48.0523 47.2002L40.0747 53.4026Z" fill="#E27625" stroke="#E27625" stroke-width="0.25" stroke-linecap="round" stroke-linejoin="round"/>
<path d="M49.3115 57.8891L40.0732 53.4233L40.8173 59.419L40.7346 61.9619L49.3115 57.8891Z" fill="#D5BFB2" stroke="#D5BFB2" stroke-width="0.25" stroke-linecap="round" stroke-linejoin="round"/>
<path d="M20.667 57.8891L29.2646 61.9619L29.2026 59.419L29.9259 53.4233L20.667 57.8891Z" fill="#D5BFB2" stroke="#D5BFB2" stroke-width="0.25" stroke-linecap="round" stroke-linejoin="round"/>
<path d="M29.4089 43.2307L21.7207 40.9772L27.1355 38.4756L29.4089 43.2307Z" fill="#233447" stroke="#233447" stroke-width="0.25" stroke-linecap="round" stroke-linejoin="round"/>
<path d="M40.5898 43.2308L42.8426 38.4963L48.2987 40.998L40.5898 43.2308Z" fill="#233447" stroke="#233447" stroke-width="0.25" stroke-linecap="round" stroke-linejoin="round"/>
<path d="M20.6678 57.8891L22.0112 46.8489L13.4756 47.097L20.6678 57.8891Z" fill="#CC6228" stroke="#CC6228" stroke-width="0.25" stroke-linecap="round" stroke-linejoin="round"/>
<path d="M47.9888 46.8489L49.3115 57.8891L56.5244 47.097L47.9888 46.8489Z" fill="#CC6228" stroke="#CC6228" stroke-width="0.25" stroke-linecap="round" stroke-linejoin="round"/>
<path d="M54.4585 34.6921L39.144 35.3951L40.5701 43.2514L42.8228 38.5169L48.279 41.0186L54.4585 34.6921Z" fill="#CC6228" stroke="#CC6228" stroke-width="0.25" stroke-linecap="round" stroke-linejoin="round"/>
<path d="M21.7427 40.9771L27.1575 38.4754L29.4102 43.2099L30.8363 35.3536L15.5425 34.6506L21.7427 40.9771Z" fill="#CC6228" stroke="#CC6228" stroke-width="0.25" stroke-linecap="round" stroke-linejoin="round"/>
<path d="M15.5425 34.6921L21.9493 47.2003L21.7427 40.9772L15.5425 34.6921Z" fill="#E27525" stroke="#E27525" stroke-width="0.25" stroke-linecap="round" stroke-linejoin="round"/>
<path d="M48.2993 40.9772L48.0513 47.2003L54.4581 34.6921L48.2993 40.9772Z" fill="#E27525" stroke="#E27525" stroke-width="0.25" stroke-linecap="round" stroke-linejoin="round"/>
<path d="M30.8362 35.3743L29.4102 43.2306L31.2082 52.4928L31.6009 40.2741L30.8362 35.3743Z" fill="#E27525" stroke="#E27525" stroke-width="0.25" stroke-linecap="round" stroke-linejoin="round"/>
<path d="M39.1644 35.3743L38.4204 40.2535L38.7924 52.4928L40.5905 43.2306L39.1644 35.3743Z" fill="#E27525" stroke="#E27525" stroke-width="0.25" stroke-linecap="round" stroke-linejoin="round"/>
<path d="M40.591 43.2307L38.793 52.493L40.0743 53.4026L48.0519 47.1796L48.2999 40.9565L40.591 43.2307Z" fill="#F5841F" stroke="#F5841F" stroke-width="0.25" stroke-linecap="round" stroke-linejoin="round"/>
<path d="M21.7427 40.9771L21.9493 47.2001L29.9269 53.4231L31.2083 52.5135L29.4102 43.2513L21.7427 40.9771Z" fill="#F5841F" stroke="#F5841F" stroke-width="0.25" stroke-linecap="round" stroke-linejoin="round"/>
<path d="M40.7556 61.9618L40.8382 59.4188L40.1355 58.8193H29.8846L29.2232 59.4188L29.2852 61.9618L20.667 57.8889L23.6844 60.3492L29.7813 64.5461H40.2182L46.3357 60.3492L49.3118 57.8889L40.7556 61.9618Z" fill="#C0AC9D" stroke="#C0AC9D" stroke-width="0.25" stroke-linecap="round" stroke-linejoin="round"/>
<path d="M40.0736 53.4026L38.7922 52.4929H31.2074L29.926 53.4026L29.2026 59.3982L29.864 58.7987H40.1149L40.8176 59.3982L40.0736 53.4026Z" fill="#161616" stroke="#161616" stroke-width="0.25" stroke-linecap="round" stroke-linejoin="round"/>
<path d="M67.4574 21.6672L69.7308 10.5857L66.3 0.269043L40.0732 19.6825L50.1589 28.2004L64.4193 32.356L67.5607 28.6759L66.1966 27.6835L68.3667 25.6988L66.6927 24.417L68.8627 22.763L67.4574 21.6672Z" fill="#763E1A" stroke="#763E1A" stroke-width="0.25" stroke-linecap="round" stroke-linejoin="round"/>
<path d="M0.248047 10.5649L2.56278 21.6465L1.0954 22.7422L3.3068 24.3962L1.63275 25.678L3.80282 27.6628L2.43878 28.6552L5.5802 32.3352L19.8406 28.1797L29.9262 19.6617L3.69948 0.248291L0.248047 10.5649Z" fill="#763E1A" stroke="#763E1A" stroke-width="0.25" stroke-linecap="round" stroke-linejoin="round"/>
<path d="M64.4197 32.356L50.1593 28.2004L54.4581 34.6923L48.0513 47.2004L56.5455 47.097H69.2145L64.4197 32.356Z" fill="#F5841F" stroke="#F5841F" stroke-width="0.25" stroke-linecap="round" stroke-linejoin="round"/>
<path d="M19.841 28.2004L5.58062 32.356L0.827148 47.097H13.4755L21.9698 47.2004L15.5629 34.6923L19.841 28.2004Z" fill="#F5841F" stroke="#F5841F" stroke-width="0.25" stroke-linecap="round" stroke-linejoin="round"/>
<path d="M39.1647 35.3743L40.074 19.6823L44.2075 8.51807H25.793L29.9264 19.6823L30.8358 35.3743L31.1871 40.2949L31.2078 52.4929H38.772L38.7927 40.2949L39.1647 35.3743Z" fill="#F5841F" stroke="#F5841F" stroke-width="0.25" stroke-linecap="round" stroke-linejoin="round"/>
</g>
<defs>
<clipPath id="clip0_7874_1756">
<rect width="70" height="64.8148" fill="white"/>
</clipPath>
</defs>
</svg>
