<svg width="70" height="44" viewBox="0 0 70 44" fill="none" xmlns="http://www.w3.org/2000/svg">
<g clip-path="url(#clip0_7874_1788)">
<path d="M14.3293 8.41799C25.7447 -2.80469 44.253 -2.80469 55.6683 8.41799L57.043 9.76781C57.6149 10.3279 57.6149 11.2395 57.043 11.7996L52.3424 16.4208C52.0577 16.702 51.5932 16.702 51.3085 16.4208L49.418 14.5625C41.4545 6.73307 28.5431 6.73307 20.5773 14.5625L18.5514 16.552C18.2667 16.8332 17.8022 16.8332 17.5175 16.552L12.8216 11.9308C12.2498 11.3707 12.2498 10.4591 12.8216 9.89904L14.3293 8.41799ZM65.3893 17.9722L69.5717 22.0849C70.1435 22.645 70.1435 23.5565 69.5717 24.1166L50.711 42.6578C50.1392 43.2179 49.2149 43.2179 48.6431 42.6578L35.2579 29.4995C35.1155 29.3589 34.8845 29.3589 34.7421 29.4995L21.3545 42.6578C20.7827 43.2179 19.8584 43.2179 19.2866 42.6578L0.425935 24.1166C-0.145884 23.5565 -0.145884 22.645 0.425935 22.0849L4.60838 17.9722C5.1802 17.4121 6.10445 17.4121 6.67627 17.9722L20.0615 31.1329C20.2039 31.2735 20.4349 31.2735 20.5773 31.1329L33.9625 17.9722C34.5344 17.4121 35.4586 17.4121 36.0304 17.9722L49.4157 31.1329C49.558 31.2735 49.7891 31.2735 49.9315 31.1329L63.3167 17.9745C63.8932 17.4121 64.8174 17.4121 65.3893 17.9722Z" fill="#3B99FC"/>
</g>
<defs>
<clipPath id="clip0_7874_1788">
<rect width="70" height="43.0769" fill="white"/>
</clipPath>
</defs>
</svg>
